<svg width="32" height="33" viewBox="0 0 32 33" fill="none" xmlns="http://www.w3.org/2000/svg">
<g clip-path="url(#clip0_15_128)">
<rect y="0.5" width="32" height="32" rx="16" fill="url(#paint0_radial_15_128)"/>
<path fill-rule="evenodd" clip-rule="evenodd" d="M16 0.5C7.16 0.5 5.49852e-06 7.84128 5.49852e-06 16.9051C-0.00277991 20.3492 1.05276 23.7067 3.01674 26.5008C4.98072 29.2949 7.75331 31.3836 10.9408 32.4703C11.7408 32.613 12.04 32.1208 12.04 31.6894C12.04 31.3006 12.0192 30.0095 12.0192 28.6347C8 29.3943 6.96 27.6308 6.64 26.7072C6.4592 26.2347 5.68 24.7796 5 24.3891C4.44 24.0823 3.64 23.3228 4.9792 23.3031C6.24 23.2818 7.1392 24.4925 7.44 24.9846C8.88 27.4651 11.1808 26.7678 12.0992 26.338C12.24 25.2717 12.6592 24.5548 13.12 24.1447C9.56 23.7345 5.84 22.3188 5.84 16.0438C5.84 14.259 6.4592 12.7841 7.48 11.6358C7.32 11.2257 6.76 9.54413 7.64 7.28843C7.64 7.28843 8.9792 6.85698 12.04 8.96831C13.3427 8.59861 14.6884 8.41262 16.04 8.41546C17.4 8.41546 18.76 8.5992 20.04 8.96831C23.0992 6.83565 24.44 7.28843 24.44 7.28843C25.32 9.54413 24.76 11.2257 24.6 11.6358C25.6192 12.7841 26.24 14.2393 26.24 16.0438C26.24 22.3401 22.5008 23.7345 18.9408 24.1447C19.52 24.6565 20.0208 25.6408 20.0208 27.1796C20.0208 29.373 20 31.1365 20 31.691C20 32.1208 20.3008 32.6327 21.1008 32.4686C24.2763 31.3683 27.0356 29.2751 28.9906 26.4834C30.9457 23.6917 31.9981 20.3419 32 16.9051C32 7.84128 24.84 0.5 16 0.5Z" fill="#F5F5F5"/>
</g>
<defs>
<radialGradient id="paint0_radial_15_128" cx="0" cy="0" r="1" gradientUnits="userSpaceOnUse" gradientTransform="translate(16 16.5) rotate(90) scale(16)">
<stop stop-color="#4B4B4B"/>
<stop offset="0.5" stop-color="#4B4B4B"/>
<stop offset="0.95" stop-color="#4B4B4B"/>
<stop offset="1" stop-color="white"/>
</radialGradient>
<clipPath id="clip0_15_128">
<rect y="0.5" width="32" height="32" rx="16" fill="white"/>
</clipPath>
</defs>
</svg>
