<svg width="32" height="33" viewBox="0 0 32 33" fill="none" xmlns="http://www.w3.org/2000/svg">
<rect y="0.5" width="32" height="32" rx="16" fill="#F5F5F5"/>
<path d="M25 10.6668V22.3333C25 22.9954 24.5134 23.5 23.875 23.5H22.75V12.912L16 17.9403L9.25 12.912V23.5H8.125C7.48656 23.5 7 22.9954 7 22.3333V10.6668C7 10.3355 7.12038 10.0438 7.32231 9.83732C7.42743 9.72812 7.55267 9.64198 7.69058 9.58405C7.82849 9.52613 7.97623 9.4976 8.125 9.50016H8.50019L16 15.1392L23.4998 9.50016H23.875C24.1945 9.50016 24.4757 9.62499 24.6777 9.83732C24.8796 10.0438 25 10.3355 25 10.6668Z" fill="#E23636"/>
</svg>
