<?xml version="1.0" encoding="UTF-8" standalone="no"?>
<!-- Created with Inkscape (http://www.inkscape.org/) -->

<svg
   width="192mm"
   height="192mm"
   viewBox="0 0 192 192"
   version="1.1"
   id="svg1"
   xml:space="preserve"
   inkscape:export-filename="bitmap.png"
   inkscape:export-xdpi="96"
   inkscape:export-ydpi="96"
   sodipodi:docname="omniroot.svg"
   inkscape:version="1.4 (e7c3feb100, 2024-10-09)"
   xmlns:inkscape="http://www.inkscape.org/namespaces/inkscape"
   xmlns:sodipodi="http://sodipodi.sourceforge.net/DTD/sodipodi-0.dtd"
   xmlns="http://www.w3.org/2000/svg"
   xmlns:svg="http://www.w3.org/2000/svg"><sodipodi:namedview
     id="namedview1"
     pagecolor="#505050"
     bordercolor="#ffffff"
     borderopacity="1"
     inkscape:showpageshadow="0"
     inkscape:pageopacity="0"
     inkscape:pagecheckerboard="1"
     inkscape:deskcolor="#505050"
     inkscape:document-units="mm"
     inkscape:clip-to-page="false"
     showgrid="false"
     inkscape:zoom="1.0799195"
     inkscape:cx="300.02236"
     inkscape:cy="375.49094"
     inkscape:window-width="1920"
     inkscape:window-height="1006"
     inkscape:window-x="0"
     inkscape:window-y="0"
     inkscape:window-maximized="1"
     inkscape:current-layer="layer1"
     inkscape:export-bgcolor="#00000000"><inkscape:grid
       id="grid10"
       units="mm"
       originx="0"
       originy="0"
       spacingx="0.99999997"
       spacingy="0.99999997"
       empcolor="#0099e5"
       empopacity="0.30196078"
       color="#0099e5"
       opacity="0.14901961"
       empspacing="5"
       enabled="true"
       visible="false" /></sodipodi:namedview><defs
     id="defs1"><inkscape:path-effect
       effect="fillet_chamfer"
       id="path-effect10"
       is_visible="true"
       lpeversion="1"
       nodesatellites_param="F,0,0,1,0,8.4666664,0,1 @ F,0,0,1,0,8.4666664,0,1 @ F,0,0,1,0,8.4666664,0,1 @ F,0,0,1,0,8.4666664,0,1 @ F,0,0,1,0,8.4666664,0,1 @ F,0,0,1,0,8.4666664,0,1 @ F,0,0,1,0,8.4666664,0,1 @ F,0,0,1,0,8.4666664,0,1 @ F,0,0,1,0,8.4666664,0,1 @ F,0,0,1,0,8.4666664,0,1 @ F,0,0,1,0,8.4666664,0,1 @ F,0,0,1,0,8.4666664,0,1 @ F,0,0,1,0,8.4666664,0,1 @ F,0,0,1,0,8.4666664,0,1 @ F,0,0,1,0,8.4666664,0,1 @ F,0,0,1,0,8.4666664,0,1 @ F,0,0,1,0,8.4666664,0,1 @ F,0,0,1,0,8.4666664,0,1 @ F,0,0,1,0,8.4666664,0,1 @ F,0,0,1,0,8.4666664,0,1 @ F,0,0,1,0,8.4666664,0,1 @ F,0,0,1,0,8.4666664,0,1 @ F,0,0,1,0,8.4666664,0,1 @ F,0,0,1,0,8.4666664,0,1 @ F,0,0,1,0,8.4666664,0,1 @ F,0,0,1,0,8.4666664,0,1 @ F,0,0,1,0,8.4666664,0,1 @ F,0,0,1,0,8.4666664,0,1 | F,0,0,1,0,8.4666664,0,1 @ F,0,0,1,0,8.4666664,0,1 @ F,0,0,1,0,8.4666664,0,1 @ F,0,0,1,0,8.4666664,0,1"
       radius="32"
       unit="px"
       method="auto"
       mode="F"
       chamfer_steps="1"
       flexible="false"
       use_knot_distance="true"
       apply_no_radius="true"
       apply_with_radius="true"
       only_selected="false"
       hide_knots="false" /><inkscape:path-effect
       effect="fillet_chamfer"
       id="path-effect9"
       is_visible="true"
       lpeversion="1"
       nodesatellites_param="F,0,0,1,0,0,0,1 @ F,0,0,1,0,0,0,1 @ F,0,0,1,0,0,0,1 @ F,0,0,1,0,0,0,1 @ F,0,0,1,0,0,0,1 @ F,0,0,1,0,0,0,1 @ F,0,0,1,0,0,0,1 @ F,0,0,1,0,0,0,1 @ F,0,0,1,0,0,0,1 @ F,0,0,1,0,0,0,1 @ F,0,0,1,0,0,0,1 @ F,0,0,1,0,0,0,1 @ F,0,0,1,0,0,0,1 @ F,0,0,1,0,0,0,1 @ F,0,0,1,0,0,0,1 @ F,0,0,1,0,0,0,1 @ F,0,0,1,0,0,0,1 @ F,0,0,1,0,0,0,1 @ F,0,0,1,0,0,0,1 @ F,0,0,1,0,0,0,1 @ F,0,0,1,0,0,0,1 @ F,0,0,1,0,0,0,1 @ F,0,0,1,0,0,0,1 @ F,0,0,1,0,0,0,1 @ F,0,0,1,0,0,0,1 @ F,0,0,1,0,0,0,1 @ F,0,0,1,0,0,0,1 @ F,0,0,1,0,0,0,1 | F,0,0,1,0,0,0,1 @ F,0,0,1,0,0,0,1 @ F,0,0,1,0,0,0,1 @ F,0,0,1,0,0,0,1"
       radius="0"
       unit="px"
       method="auto"
       mode="F"
       chamfer_steps="1"
       flexible="false"
       use_knot_distance="true"
       apply_no_radius="true"
       apply_with_radius="true"
       only_selected="false"
       hide_knots="false" /><inkscape:path-effect
       effect="fillet_chamfer"
       id="path-effect8"
       is_visible="true"
       lpeversion="1"
       nodesatellites_param="F,0,0,1,0,0,0,1 @ F,0,0,1,0,0,0,1 @ F,0,0,1,0,0,0,1 @ F,0,0,1,0,0,0,1 @ F,0,0,1,0,0,0,1 @ F,0,0,1,0,0,0,1 @ F,0,0,1,0,0,0,1 @ F,0,0,1,0,0,0,1 @ F,0,0,1,0,0,0,1 @ F,0,0,1,0,0,0,1 @ F,0,0,1,0,0,0,1 @ F,0,0,1,0,0,0,1 @ F,0,0,1,0,0,0,1 @ F,0,0,1,0,0,0,1 @ F,0,0,1,0,0,0,1 @ F,0,0,1,0,0,0,1 @ F,0,0,1,0,0,0,1 @ F,0,0,1,0,0,0,1 @ F,0,0,1,0,0,0,1 @ F,0,0,1,0,0,0,1 @ F,0,0,1,0,0,0,1 @ F,0,0,1,0,0,0,1 @ F,0,0,1,0,0,0,1 @ F,0,0,1,0,0,0,1 @ F,0,0,1,0,0,0,1 @ F,0,0,1,0,0,0,1 @ F,0,0,1,0,0,0,1 @ F,0,0,1,0,0,0,1 | F,0,0,1,0,0,0,1 @ F,0,0,1,0,0,0,1 @ F,0,0,1,0,0,0,1 @ F,0,0,1,0,0,0,1"
       radius="0"
       unit="px"
       method="auto"
       mode="F"
       chamfer_steps="1"
       flexible="false"
       use_knot_distance="true"
       apply_no_radius="true"
       apply_with_radius="true"
       only_selected="false"
       hide_knots="false" /><filter
       style="color-interpolation-filters:sRGB;"
       inkscape:label="Drop Shadow"
       id="filter393"
       x="-0.25888748"
       y="-0.34517771"
       width="1.542669"
       height="1.7235469"><feFlood
         result="flood"
         in="SourceGraphic"
         flood-opacity="0.498039"
         flood-color="rgb(0,0,0)"
         id="feFlood392" /><feGaussianBlur
         result="blur"
         in="SourceGraphic"
         stdDeviation="8.666312"
         id="feGaussianBlur392" /><feOffset
         result="offset"
         in="blur"
         dx="2.000000"
         dy="2.000000"
         id="feOffset392" /><feComposite
         result="comp1"
         operator="in"
         in="flood"
         in2="offset"
         id="feComposite392" /><feComposite
         result="comp2"
         operator="over"
         in="SourceGraphic"
         in2="comp1"
         id="feComposite393" /></filter></defs><g
     inkscape:label="Layer 1"
     inkscape:groupmode="layer"
     id="layer1"><rect
       style="fill:#191717;fill-opacity:1;stroke-width:0.204;stroke-dasharray:none"
       id="rect64"
       width="192"
       height="192"
       x="0"
       y="0" /><path
       d="m 72.799666,490 41.467664,0 a 10.802365,10.802365 141.9114 0 0 10.48952,-8.22147 l 29.8323,-121.24706 A 10.802365,10.802365 141.9114 0 1 165.07867,352.31 h 105.32566 a 6.6546067,6.6546067 51.833461 0 1 6.46619,8.22694 L 247.39048,481.77306 A 6.6546067,6.6546067 51.833461 0 0 253.85667,490 l 41.46766,0 a 10.802365,10.802365 141.9114 0 0 10.48952,-8.22147 l 29.8323,-121.24706 A 10.802365,10.802365 141.9114 0 1 346.13567,352.31 l 102.98666,0 a 8.4666664,8.4666664 135 0 0 8.46667,-8.46667 v -31.22866 a 8.4666664,8.4666664 45 0 0 -8.46667,-8.46667 h -91.30666 a 6.6177389,6.6177389 51.988008 0 1 -6.42184,-8.21603 l 25.11034,-100.89194 a 10.832165,10.832165 141.98801 0 1 10.5115,-8.21603 h 62.10666 a 8.4666664,8.4666664 135 0 0 8.46667,-8.46667 v -31.22866 a 8.4666664,8.4666664 45 0 0 -8.46667,-8.46667 h -50.42566 a 6.6471205,6.6471205 51.86479 0 1 -6.45719,-8.22475 L 422.09852,8.224746 A 6.6471205,6.6471205 51.86479 0 0 415.64133,0 H 373.77667 A 10.784303,10.784303 141.86484 0 0 363.30051,8.2247426 L 333.44149,130.43626 A 10.784303,10.784303 141.86484 0 1 322.96533,138.661 H 217.25667 a 6.6471092,6.6471092 51.864837 0 1 -6.45718,-8.22474 L 240.65851,8.2247426 A 6.6471092,6.6471092 51.864837 0 0 234.20133,0 H 192.71967 A 10.783245,10.783245 141.86211 0 0 182.24429,8.2249341 L 152.39771,130.43607 a 10.783245,10.783245 141.86211 0 1 -10.47538,8.22493 l -101.044664,0 A 8.4666664,8.4666664 135 0 0 32.411,147.12767 v 31.22866 a 8.4666664,8.4666664 45 0 0 8.466666,8.46667 h 89.364664 a 6.6386891,6.6386891 51.900106 0 1 6.44706,8.22226 L 111.91061,295.92474 A 10.797981,10.797981 141.90011 0 1 101.42433,304.147 H 40.877666 A 8.4666664,8.4666664 135 0 0 32.411,312.61367 v 31.22866 a 8.4666664,8.4666664 45 0 0 8.466666,8.46667 h 48.866668 a 6.6360066,6.6360066 51.91135 0 1 6.443825,8.22147 L 66.355841,481.77853 A 6.6360066,6.6360066 51.91135 0 0 72.799666,490 Z M 205.57667,186.824 h 105.70866 a 6.6177389,6.6177389 51.988008 0 1 6.42184,8.21603 l -25.11034,100.89194 a 10.832165,10.832165 141.98801 0 1 -10.5115,8.21603 H 176.75867 a 6.6386891,6.6386891 51.900106 0 1 -6.44706,-8.22226 l 24.77878,-100.87948 a 10.797981,10.797981 141.90011 0 1 10.48628,-8.22226 z"
       id="path1"
       style="fill:#3c3d37;fill-opacity:1;stroke-width:0.998107;stroke-dasharray:none"
       inkscape:path-effect="#path-effect10"
       inkscape:original-d="m 64.333,490 h 58.401 L 156.612,352.31 H 278.871 L 245.39,490 h 58.401 l 33.878,-137.69 h 119.92 v -48.162 h -108.24 l 29.2,-117.324 h 79.04 V 138.662 H 390.23 L 424.108,0 H 365.31 L 331.432,138.661 H 208.79 L 242.668,0 H 184.253 L 150.389,138.661 H 32.411 v 48.162 h 106.298 l -28.818,117.324 h -77.48 v 48.162 h 65.8 z M 197.11,186.824 h 122.642 l -29.2,117.324 h -122.26 z"
       transform="matrix(0,0.20438689,-0.20438689,0,146.96737,72.150572)"
       inkscape:label="hashtag" /><path
       d="m 121.89856,22.888732 c 1.98441,0.992165 2.78862,3.405072 1.79642,5.389402 l -4.718,9.436473 c 10.39405,7.260733 17.19327,19.313415 17.19327,32.954428 v 4.017025 c 0,4.437206 -3.59684,8.03405 -8.03405,8.03405 H 63.8638 c -4.437085,0 -8.03405,-3.596844 -8.03405,-8.03405 v -4.017025 c 0,-13.641013 6.799176,-25.693735 17.193429,-32.954428 l -4.718237,-9.436473 c -0.992165,-1.98433 -0.187876,-4.397237 1.796454,-5.389402 1.98433,-0.992165 4.397237,-0.187876 5.389402,1.796454 l 4.553579,9.107158 C 84.935225,31.673323 90.330371,30.498785 96,30.498785 c 5.66963,0 11.0649,1.174538 15.95562,3.293599 l 4.5537,-9.107198 c 0.99221,-1.98433 3.40483,-2.788619 5.38924,-1.796454 z M 77.923387,54.600935 c -3.327824,0 -6.025537,2.697834 -6.025537,6.025538 0,3.327703 2.697713,6.025537 6.025537,6.025537 3.327825,0 6.025538,-2.697834 6.025538,-6.025537 0,-3.327704 -2.697713,-6.025538 -6.025538,-6.025538 z m 36.153223,0 c -3.3277,0 -6.02554,2.697834 -6.02554,6.025538 0,3.327703 2.69784,6.025537 6.02554,6.025537 3.32771,0 6.02554,-2.697834 6.02554,-6.025537 0,-3.327704 -2.69783,-6.025538 -6.02554,-6.025538 z"
       id="形状结合"
       fill="#09244b"
       style="fill:#697565;fill-opacity:1;fill-rule:evenodd;stroke:none;stroke-width:4.01702;filter:url(#filter393)"
       inkscape:label="android" /></g></svg>
