<svg width="32" height="33" viewBox="0 0 32 33" fill="none" xmlns="http://www.w3.org/2000/svg">
<g clip-path="url(#clip0_15_123)">
<path d="M16 0.5C7.168 0.5 0 7.668 0 16.5C0 25.332 7.168 32.5 16 32.5C24.832 32.5 32 25.332 32 16.5C32 7.668 24.832 0.5 16 0.5ZM23.424 11.38C23.184 13.908 22.144 20.052 21.616 22.884C21.392 24.084 20.944 24.484 20.528 24.532C19.6 24.612 18.896 23.924 18 23.332C16.592 22.404 15.792 21.828 14.432 20.932C12.848 19.892 13.872 19.316 14.784 18.388C15.024 18.148 19.12 14.42 19.2 14.084C19.2111 14.0331 19.2096 13.9803 19.1957 13.9301C19.1818 13.8799 19.1558 13.8339 19.12 13.796C19.024 13.716 18.896 13.748 18.784 13.764C18.64 13.796 16.4 15.284 12.032 18.228C11.392 18.66 10.816 18.884 10.304 18.868C9.728 18.852 8.64 18.548 7.824 18.276C6.816 17.956 6.032 17.78 6.096 17.22C6.128 16.932 6.528 16.644 7.28 16.34C11.952 14.308 15.056 12.964 16.608 12.324C21.056 10.468 21.968 10.148 22.576 10.148C22.704 10.148 23.008 10.18 23.2 10.34C23.36 10.468 23.408 10.644 23.424 10.772C23.408 10.868 23.44 11.156 23.424 11.38Z" fill="#F5F5F5"/>
</g>
<defs>
<clipPath id="clip0_15_123">
<rect width="32" height="32" fill="white" transform="translate(0 0.5)"/>
</clipPath>
</defs>
</svg>
